<?xml version="1.0" encoding="utf-8"?>
<!-- Generator: Adobe Illustrator 24.0.3, SVG Export Plug-In . SVG Version: 6.00 Build 0)  -->
<svg version="1.1" id="Layer_1" xmlns="http://www.w3.org/2000/svg" xmlns:xlink="http://www.w3.org/1999/xlink" x="0px" y="0px"
	 viewBox="0 0 702.6 578.2" style="enable-background:new 0 0 702.6 578.2;" xml:space="preserve">
<style type="text/css">
	.st0{fill:#666666;}
</style>
<g>
	<path class="st0" d="M521.6,358.7V105.3c0-7.6-6.2-13.7-13.7-13.7H266.3c-47.2,0-85.3,38.2-85.3,85.3v224.4
		c0,47.1,38.2,85.3,85.3,85.3h241.5c7.6,0,13.7-6.2,13.7-13.7v-8c0-10.4-1.9-20.7-5.2-30.6c-3.4-10.1-6.3-26.4,0.4-46.4
		C519.9,378.5,521.6,368.6,521.6,358.7z M277.1,197.8c0-3.9,3.1-7,7-7H443c3.9,0,7,3.1,7,7v12.7c0,3.9-3.1,7-7,7H284.2
		c-3.9,0-7-3.1-7-7V197.8z M277.1,246.2c0-3.9,3.1-7,7-7H443c3.9,0,7,3.1,7,7V259c0,3.9-3.1,7-7,7H284.2c-3.9,0-7-3.1-7-7V246.2z
		 M469.4,435.9H255.2c-13.8,0-25-11.2-25-25l0,0c0-13.8,11.2-25,25-25h214.3V435.9z"/>
</g>
</svg>
