<?xml version="1.0" encoding="utf-8"?>
<!-- Generator: Adobe Illustrator 24.0.2, SVG Export Plug-In . SVG Version: 6.00 Build 0)  -->
<svg version="1.1" id="Layer_1" xmlns="http://www.w3.org/2000/svg" xmlns:xlink="http://www.w3.org/1999/xlink" x="0px" y="0px"
	 viewBox="0 0 21 21" style="enable-background:new 0 0 21 21;" xml:space="preserve">
<style type="text/css">
	.st0{fill:#FFFFFF;}
	.st1{fill:#FFC1A3;}
</style>
<circle class="st0" cx="10.5" cy="10.5" r="9.5"/>
<g id="Layer_1_1_">
</g>
<path d="M44.6-4.1L44.6-4.1C44.6-4.1,44.5-4.1,44.6-4.1C44.5-4.1,44.5-4.1,44.6-4.1z"/>
<g>
	<path class="st1" d="M10.5,1C5.3,1,1,5.3,1,10.5S5.3,20,10.5,20s9.5-4.2,9.5-9.5S15.7,1,10.5,1z M14.5,14.5c-0.1,1.5-0.3,3-0.6,4.3
		c-1.2-0.9-2.4-1.8-3.5-2.7c-1.1,0.9-2.2,1.8-3.2,2.5c-0.3-1.4-0.6-2.8-0.7-4.2c-1.5-0.1-2.8-0.3-4.1-0.5c0.8-1.2,1.6-2.4,2.5-3.5
		c-1.1-1.1-2-2.2-2.7-3.3C3.6,6.8,5,6.6,6.4,6.4C6.5,5,6.7,3.6,7,2.3c1.2,0.8,2.4,1.6,3.4,2.4c1.2-1,2.4-1.9,3.6-2.6
		c0.2,1.4,0.4,2.9,0.6,4.3c1.5,0.2,3,0.4,4.3,0.7c-0.8,1.2-1.7,2.3-2.6,3.4c1,1.2,1.8,2.4,2.5,3.5C17.3,14.2,15.9,14.4,14.5,14.5z"
		/>
	<path class="st1" d="M6.3,12.2c0,0.7,0.1,1.5,0.2,2.3c0.7,0.1,1.5,0.1,2.2,0.1C7.8,13.8,7,13,6.3,12.2z"/>
	<path class="st1" d="M14.6,8.7c0-0.7-0.1-1.5-0.1-2.3c-0.8-0.1-1.5-0.1-2.4-0.2C13,7,13.9,7.9,14.6,8.7z"/>
	<path class="st1" d="M12.1,14.6c0.8,0,1.5-0.1,2.3-0.1c0.1-0.7,0.1-1.5,0.2-2.3C13.8,13.1,13,13.9,12.1,14.6z"/>
	<path class="st1" d="M8.7,6.3C8,6.3,7.2,6.4,6.4,6.5C6.3,7.2,6.2,7.9,6.2,8.7C7,7.8,7.9,7,8.7,6.3z"/>
	<path class="st1" d="M8.7,14.6c0.6,0.5,1.1,1.1,1.7,1.5c0.6-0.5,1.2-1,1.7-1.5C11,14.7,9.8,14.7,8.7,14.6z"/>
	<path class="st1" d="M12.1,6.2c-0.6-0.5-1.1-1-1.7-1.5c-0.6,0.5-1.2,1-1.7,1.5C9.9,6.2,11,6.2,12.1,6.2z"/>
	<path class="st1" d="M6.2,8.7c-0.5,0.6-1,1.1-1.5,1.7c0.5,0.6,1,1.1,1.5,1.7C6.2,11,6.2,9.8,6.2,8.7z"/>
	<path class="st1" d="M14.6,12.2c0.5-0.6,1.1-1.1,1.5-1.7c-0.5-0.6-1-1.2-1.5-1.8C14.7,9.9,14.7,11.1,14.6,12.2z"/>
</g>
</svg>
