<?xml version="1.0" encoding="utf-8"?>
<!-- Generator: Adobe Illustrator 24.0.2, SVG Export Plug-In . SVG Version: 6.00 Build 0)  -->
<svg version="1.1" id="Layer_1" xmlns="http://www.w3.org/2000/svg" xmlns:xlink="http://www.w3.org/1999/xlink" x="0px" y="0px"
	 viewBox="0 0 210.7 58.1" style="enable-background:new 0 0 210.7 58.1;" xml:space="preserve">
<style type="text/css">
	.st0{enable-background:new    ;}
	.st1{fill:#FFC1A3;}
</style>
<g id="Layer_1_1_">
</g>
<g class="st0">
	<path class="st1" d="M12.6,3.4V1.7h3v7.4h-3V7.4c-1.3-1.9-3-2.8-5.2-2.8C6.1,4.6,5,4.9,4.3,5.4c-0.6,0.5-1,1.3-1,2.3s0.3,1.7,1,2.2
		s1.7,1,3.1,1.3l2.9,0.8c1.8,0.5,3.2,1.1,4.2,1.9c1,0.8,1.6,1.6,1.9,2.5s0.4,1.9,0.4,3c0,2.2-0.7,4-2.1,5.2
		c-1.4,1.3-3.2,1.9-5.5,1.9c-2.2,0-4.2-0.8-6-2.4v2h-3v-8.9h3v2.1c1.5,2.7,3.3,4,5.7,4c1.4,0,2.4-0.4,3.2-1.1c0.8-0.7,1.1-1.7,1.1-3
		c0-1.7-1.2-3-3.7-3.6l-3-0.9c-2.2-0.6-3.8-1.5-4.8-2.5c-1-1.1-1.6-2.5-1.6-4.2c0-2.1,0.6-3.8,1.9-5s3-1.8,5.2-1.8
		C9.1,1.5,10.9,2.1,12.6,3.4z"/>
	<path class="st1" d="M39.8,9V4.9H29.4v7.2h9.1v3h-9.1v8h10.4v-4.4h3v7.5H22.6v-3h3.1V4.9h-3.1v-3h20.2V9H39.8z"/>
	<path class="st1" d="M64.9,4.8l6.6,18.3h2.7v3h-9.6v-3h3.2l-1.9-5.5h-8.8l-1.9,5.5h3.1v3h-9.6v-3h2.9l6.6-18.3h-2.9V1.9h12.6v2.9
		H64.9z M61.6,4.8L61.6,4.8l-3.5,10H65L61.6,4.8z"/>
	<path class="st1" d="M92.5,3.4V1.7h3v7.4h-3V7.4c-1.3-1.9-3-2.8-5.2-2.8c-1.3,0-2.4,0.3-3.1,0.8s-1.1,1.3-1.1,2.3s0.3,1.7,1,2.2
		s1.7,0.9,3.1,1.3l2.9,0.8c1.8,0.5,3.2,1.1,4.2,1.9c1,0.8,1.6,1.6,1.9,2.5c0.3,0.9,0.4,1.9,0.4,3c0,2.2-0.7,4-2.1,5.2
		c-1.4,1.3-3.2,1.9-5.5,1.9c-2.2,0-4.2-0.8-6-2.4v2h-3v-8.9h3v2.1c1.5,2.7,3.3,4,5.7,4c1.4,0,2.4-0.4,3.2-1.1c0.8-0.7,1.1-1.7,1.1-3
		c0-1.7-1.2-3-3.7-3.6l-3-0.9c-2.2-0.6-3.8-1.5-4.8-2.5c-1-1.1-1.6-2.5-1.6-4.2c0-2.1,0.6-3.8,1.9-5s3-1.8,5.2-1.8
		C89.1,1.5,90.9,2.1,92.5,3.4z"/>
	<path class="st1" d="M109.3,4.9v6.9h10.6V4.9H117v-3h9.3v3h-2.8v18.3h2.8v3H117v-3h2.8v-8.3h-10.6v8.3h2.9v3h-9.3v-3h2.7V4.9h-2.7
		v-3h9.3v3H109.3z"/>
	<path class="st1" d="M158.2,14c0,2.5-0.5,4.7-1.6,6.6s-2.6,3.4-4.5,4.5c-1.9,1-4.1,1.6-6.6,1.6c-2.4,0-4.6-0.5-6.5-1.6
		s-3.3-2.6-4.4-4.5c-1-1.9-1.6-4.1-1.6-6.5s0.5-4.5,1.6-6.4s2.5-3.4,4.4-4.4c1.9-1.1,4-1.6,6.4-1.6c2.5,0,4.7,0.5,6.6,1.6
		c1.9,1.1,3.4,2.6,4.5,4.5C157.6,9.5,158.2,11.6,158.2,14z M145.6,23.3c1.7,0,3.2-0.4,4.5-1.3s2.3-2,3-3.5c0.7-1.4,1.1-3,1.1-4.6
		c0-1.7-0.4-3.2-1.1-4.6c-0.8-1.4-1.8-2.5-3.1-3.4c-1.3-0.8-2.8-1.2-4.5-1.2c-1.6,0-3.1,0.4-4.4,1.2c-1.3,0.8-2.3,1.9-2.9,3.3
		c-0.7,1.4-1,3-1,4.7c0,1.8,0.3,3.5,1,4.9c0.7,1.4,1.7,2.5,3,3.3C142.3,23,143.8,23.3,145.6,23.3z"/>
	<path class="st1" d="M183.2,8.2c0,1.6-0.4,2.9-1.3,3.9c-0.9,1.1-2.1,1.8-3.7,2.2l4.3,8.8h3v3H180l-5.4-11.3h-3.4v8.3h3.1v3h-10.1
		v-3h3.3V4.9h-3.3v-3h10.1c3.1,0,5.4,0.5,6.8,1.5C182.5,4.4,183.2,6,183.2,8.2z M179.4,8.2c0-1.1-0.4-2-1.1-2.5
		c-0.7-0.5-1.8-0.8-3.4-0.8h-3.8v6.9h3.5c1.6,0,2.8-0.3,3.5-0.8C179.1,10.4,179.4,9.5,179.4,8.2z"/>
	<path class="st1" d="M207.7,9V4.9h-10.4v7.2h9.1v3h-9.1v8h10.4v-4.4h3v7.5h-20.2v-3h3.1V4.9h-3.1v-3h20.2V9H207.7z"/>
</g>
<g class="st0">
	<path class="st1" d="M54.7,38.9V45H64v-6.1h-2.5v-2.7h8.2v2.7h-2.5V55h2.5v2.7h-8.2V55H64v-7.4h-9.3V55h2.5v2.7H49V55h2.4V38.9H49
		v-2.7h8.2v2.7H54.7z"/>
	<path class="st1" d="M98.4,46.9c0,2.2-0.5,4.1-1.4,5.8c-1,1.7-2.3,3-4,3.9S89.4,58,87.2,58c-2.1,0-4-0.5-5.7-1.4s-3-2.3-3.9-4
		s-1.4-3.6-1.4-5.8c0-2.1,0.5-4,1.4-5.7s2.3-3,3.9-3.9c1.7-0.9,3.6-1.4,5.7-1.4c2.2,0,4.2,0.5,5.9,1.4c1.7,1,3,2.3,4,4
		C97.9,43,98.4,44.8,98.4,46.9z M87.3,55.2c1.5,0,2.8-0.4,4-1.2s2.1-1.8,2.7-3.1s0.9-2.6,0.9-4.1s-0.3-2.8-1-4.1s-1.6-2.3-2.8-3
		c-1.2-0.7-2.5-1.1-4-1.1s-2.7,0.4-3.9,1.1c-1.1,0.7-2,1.7-2.6,2.9s-0.9,2.6-0.9,4.2c0,1.6,0.3,3.1,0.9,4.3c0.6,1.3,1.5,2.3,2.6,3
		C84.4,54.9,85.7,55.2,87.3,55.2z"/>
	<path class="st1" d="M119.7,44.1v-5.2h-4.4V55h2.8v2.7h-8.8V55h2.7V38.9h-4.4v5.2h-2.7v-7.9h17.4v7.9
		C122.3,44.1,119.7,44.1,119.7,44.1z"/>
	<path class="st1" d="M143.1,42.5v-3.6h-9.2v6.4h8V48h-8v7.1h9.2v-3.9h2.7v6.6h-17.9v-2.7h2.8V38.9h-2.8v-2.7h17.9v6.3H143.1z"/>
	<path class="st1" d="M157.4,38.9V55h7.1v-6.7h2.7v9.3h-15.8v-2.7h2.8v-16h-2.8v-2.7h8.8v2.7C160.2,38.9,157.4,38.9,157.4,38.9z"/>
</g>
</svg>
