<?xml version="1.0" encoding="utf-8"?>
<!-- Generator: Adobe Illustrator 24.0.2, SVG Export Plug-In . SVG Version: 6.00 Build 0)  -->
<svg version="1.1" id="Layer_1" xmlns="http://www.w3.org/2000/svg" xmlns:xlink="http://www.w3.org/1999/xlink" x="0px" y="0px"
	 viewBox="0 0 781.7 401.9" style="enable-background:new 0 0 781.7 401.9;" xml:space="preserve">
<style type="text/css">
	.st0{fill:#FFFFFF;}
</style>
<path d="M17.5,206.8c0-7.2,0-14.4,0-21.5c0.2-0.9,0.5-1.8,0.6-2.6c2.1-28.5,10.6-54.9,25.6-79.1C89.9,28.9,180.9-1.9,262.2,31.4
	c62.1,25.4,98.4,72.7,109.8,138.8c0.9,5,1.3,10,2,15.1c0,6.3,0,12.5,0,18.8c-0.2,1.5-0.3,3-0.6,4.4c-1.9,11.6-2.9,23.5-5.9,34.8
	c-7.2,27.2-20.6,51.1-39.6,72c-21.7,23.9-48,40.5-78.6,50.4c-4.4,1.4-9,2.4-13.6,3.7c0-49.4,0-98.3,0-147.8c14.2,0,28.3,0,42.4,0
	c0-16.6,0-32.8,0-49.4c-14.4,0-28.6,0-43.6,0c0.7-8.4,0.8-16.3,2.2-23.9c3.3-17.4,15.1-26.2,32.8-25c6.1,0.4,12.1,1.4,18.4,2.2
	c0.1-0.2,0.3-0.6,0.3-1c0.8-15.8,1.6-31.7,2.4-47.5c0.1-2-0.7-2.5-2.5-2.9c-17.6-4.1-35.3-5.2-53.1-1.7c-17.7,3.5-33.1,11.3-45,25.1
	c-13.4,15.6-19.4,34.2-21.3,54.4c-0.7,6.8-0.7,13.6-1,20.8c-9.3,0-18.5,0-27.7,0c0,16.6,0,32.7,0,49.2c9.4,0,18.5,0,27.8,0
	c0,50.1,0,99.8,0,149.7c-0.6,0-1,0.1-1.5,0c-20.9-3.5-40.6-10.5-58.9-21c-21.3-12.2-39.4-28.1-54.1-47.7
	C36.3,280,25.1,254.9,20.3,227C19.2,220.3,18.5,213.5,17.5,206.8z"/>
<path class="st0" d="M374,185.3c-0.7-5-1.1-10.1-2-15.1c-11.4-66.1-47.8-113.4-109.8-138.8C180.9-1.9,89.9,28.9,43.7,103.5
	c-15,24.2-23.5,50.7-25.6,79.1c-0.1,0.9-0.4,1.8-0.6,2.6c0-56.3,0-112.5,0-168.8c118.8,0,237.6,0,356.4,0
	C374,72.7,374,129,374,185.3z"/>
<g>
	<path d="M756.9,195.5c0,27.6,2.4,55.5-0.5,82.8c-5.7,53.7-34.5,85-88.2,88.8c-56.9,4-114.6,4-171.6-0.1
		c-52.7-3.8-82.9-33.8-86.7-86.4c-4.2-57.4-4.2-115.6,0-173c3.8-52.7,34-82.7,86.6-86.5c57.4-4.1,115.6-4.4,173,0.2
		c56.3,4.4,86.7,43,88,100.1c0.6,24.7,0.1,49.4,0.1,74C757.4,195.5,757.2,195.5,756.9,195.5z M583.9,51.8c0-0.7,0-1.4,0-2.1
		c-19.3,0-38.5-0.2-57.8,0.1c-8.4,0.1-16.7,1.2-25.1,2c-35.7,3.3-59.1,24.9-60.2,60.9c-1.7,54.2-1.7,108.5,0,162.7
		c1.1,36.1,24.4,59.5,60.1,60.6c54.7,1.6,109.5,1.6,164.2,0c34.7-1,58.4-24.8,59.4-59.7c1.6-54.7,1.6-109.5,0-164.2
		c-1.1-35-24.6-57.8-59.4-59.9C638.2,50.6,611,51.8,583.9,51.8z"/>
	<path d="M580.8,284.1c-50.4-1.1-89.2-41.5-88.1-91.9c1.1-50.5,41.5-89.1,91.9-88.1c50.4,1,89.1,41.5,88.1,91.9
		C671.7,246.4,631.2,285.1,580.8,284.1z M582.5,253.1c31.7,0.1,58.6-26.3,59.1-58c0.5-32.2-26.5-59.8-58.8-59.9
		c-31.7-0.1-58.6,26.4-59.1,58C523.3,225.4,550.3,252.9,582.5,253.1z"/>
	<path d="M677.3,120.7c-12.1,0.3-20.7-7.8-21.1-19.7c-0.4-12.1,9.2-22.2,20.9-22c10.9,0.2,20.7,10,20.8,21
		C698,111.1,688.7,120.4,677.3,120.7z"/>
</g>
</svg>
