<?xml version="1.0" encoding="utf-8"?>
<!-- Generator: Adobe Illustrator 24.0.3, SVG Export Plug-In . SVG Version: 6.00 Build 0)  -->
<svg version="1.1" id="Layer_1" xmlns="http://www.w3.org/2000/svg" xmlns:xlink="http://www.w3.org/1999/xlink" x="0px" y="0px"
	 viewBox="0 0 702.6 578.2" style="enable-background:new 0 0 702.6 578.2;" xml:space="preserve">
<style type="text/css">
	.st0{fill:#666666;}
</style>
<g>
	<path class="st0" d="M689.9,319.6c-1.7-92.3-17.9-144.9-167.7-144.9h-55.5H340.3c-18.4,0-33.3,14.9-33.3,33.3v111.5H101.1V116
		c0-13.2-10.7-23.9-23.9-23.9H38.4c-13.2,0-23.9,10.7-23.9,23.9v203.6v108.3v34.3c0,13.2,10.7,23.9,23.9,23.9h38.9
		c13.2,0,23.9-10.7,23.9-23.9v-34.3h502.3v34.3c0,13.2,10.7,23.9,23.9,23.9h38.9c13.2,0,23.9-10.7,23.9-23.9v-34.3v-75.8v-32.5
		H689.9z"/>
	<circle class="st0" cx="202.7" cy="222.1" r="85.3"/>
</g>
</svg>
