<?xml version="1.0" encoding="utf-8"?>
<!-- Generator: Adobe Illustrator 24.0.3, SVG Export Plug-In . SVG Version: 6.00 Build 0)  -->
<svg version="1.1" id="Layer_1" xmlns="http://www.w3.org/2000/svg" xmlns:xlink="http://www.w3.org/1999/xlink" x="0px" y="0px"
	 viewBox="0 0 702.6 578.2" style="enable-background:new 0 0 702.6 578.2;" xml:space="preserve">
<style type="text/css">
	.st0{fill:#666666;}
</style>
<g>
	<path class="st0" d="M413.2,254.2c-5.1-0.7-10.4-1-15.7-1c-3.9,0-7.8,0.2-11.7,0.6c-53.7,5.3-95.7,42.2-102.7,95.4
		c5,0.9,10.1,1.3,15.3,1.3c4.1,0,8.1-0.3,12-0.8c6.4-38.3,36.3-63.4,75-68.6c3.9-0.5,8-0.8,12-0.8c5.2,0,10.3,0.4,15.3,1.3
		c42,7.2,74,43.9,74,88c0,49.3-40,89.3-89.3,89.3c-45.1,0-80.4-29.4-86.4-72.8c-3.9,0.4-7.7,0.6-11.7,0.6c-5.3,0-10.6-0.4-15.7-1
		c6,58.6,53.5,100.4,113.8,100.4c64.3,0,116.3-52.1,116.3-116.3C513.9,310.5,470.1,261.9,413.2,254.2z"/>
	<path class="st0" d="M396.5,285.2c-4.1,0-8.1,0.3-12,0.8c-6.4,38.3-36.3,63.4-75,68.6c-3.9,0.5-8,0.8-12,0.8
		c-5.2,0-10.3-0.4-15.3-1.3c-42-7.2-73.9-43.9-73.9-88c0-49.3,40-89.3,89.3-89.3c45.1,0,80.4,28.4,86.4,71.8
		c3.9-0.4,7.7-0.6,11.7-0.6c5.3,0,10.6,0.4,15.7,1c-5.1-49.7-40-86.6-87.2-96.6l36.2-32.8l-33.2-28.1h-60.4l-31.8,28.1l36.1,33.1
		c-51.5,12-89.9,58.2-89.9,113.4c0,59,43.9,107.7,100.7,115.3c5.1,0.7,10.4,1,15.7,1c3.9,0,7.8-0.2,11.7-0.6
		c53.7-5.3,95.7-42.2,102.7-95.4C406.8,285.7,401.7,285.2,396.5,285.2z"/>
</g>
</svg>
